<?xml version="1.0" encoding="UTF-8" standalone="no"?>
<!-- Creator: CorelDRAW -->

<svg
   xmlns:dc="http://purl.org/dc/elements/1.1/"
   xmlns:cc="http://creativecommons.org/ns#"
   xmlns:rdf="http://www.w3.org/1999/02/22-rdf-syntax-ns#"
   xmlns:svg="http://www.w3.org/2000/svg"
   xmlns="http://www.w3.org/2000/svg"
   xmlns:sodipodi="http://sodipodi.sourceforge.net/DTD/sodipodi-0.dtd"
   xmlns:inkscape="http://www.inkscape.org/namespaces/inkscape"
   xml:space="preserve"
   width="114.833mm"
   height="30mm"
   style="clip-rule:evenodd;fill-rule:evenodd;image-rendering:optimizeQuality;shape-rendering:geometricPrecision;text-rendering:geometricPrecision"
   viewBox="0 0 123.86 32.35841"
   id="svg2"
   version="1.1"
   inkscape:version="0.91 r13725"
   sodipodi:docname="AstonMartinLogo.svg"><metadata
     id="metadata35"><rdf:RDF><cc:Work
         rdf:about=""><dc:format>image/svg+xml</dc:format><dc:type
           rdf:resource="http://purl.org/dc/dcmitype/StillImage" /><dc:title></dc:title></cc:Work></rdf:RDF></metadata><sodipodi:namedview
     pagecolor="#ffffff"
     bordercolor="#666666"
     borderopacity="1"
     objecttolerance="10"
     gridtolerance="10"
     guidetolerance="10"
     inkscape:pageopacity="0"
     inkscape:pageshadow="2"
     inkscape:window-width="1920"
     inkscape:window-height="1018"
     id="namedview33"
     showgrid="false"
     inkscape:zoom="0.81594818"
     inkscape:cx="203.44429"
     inkscape:cy="90.969629"
     inkscape:window-x="1358"
     inkscape:window-y="-8"
     inkscape:window-maximized="1"
     inkscape:current-layer="svg2" /><defs
     id="defs4"><style
       type="text/css"
       id="style6"><![CDATA[
    .fil0 {fill:black}
    .fil1 {fill:white}
    .fil2 {fill:url(#id0)}
   ]]></style><linearGradient
       id="id0"
       gradientUnits="userSpaceOnUse"
       x1="51.459202"
       y1="-2.19541"
       x2="72.395103"
       y2="18.740499"><stop
         offset="0"
         style="stop-color:#339966"
         id="stop9" /><stop
         offset="1"
         style="stop-color:#004F32"
         id="stop11" /><stop
         offset="1"
         style="stop-color:#004F32"
         id="stop13" /></linearGradient></defs><g
     id="g3437"
     transform="translate(0,3.1536731)"><path
       style="fill:#000000"
       inkscape:connector-curvature="0"
       d="m 61.9296,22.7921 c -0.226293,0 -0.392723,0.169558 -0.394341,0.173333 -0.01014,0.0075 -4.01794,3.83231 -4.01794,3.83231 -1.47792,1.42657 -3.44013,0.829345 -3.64981,0.759883 0,0 -17.1319,-4.67352 -17.1341,-4.67503 -3.26938,-0.986176 -3.91903,-2.0499 -4.41929,-3.34219 0,0 -0.290578,-0.803674 -1.00225,-1.014 0,0 -20.9422,-6.14766 -20.9439,-6.14766 -0.854585,-0.263829 -1.32486,-0.505114 -1.66085,-1.15573 0,0 -1.14937,-2.02423 -1.15315,-2.02963 -0.2552,-0.485268 -0.716954,-0.53661 -0.743704,-0.540385 -1.58384,-0.214105 -2.04829,-1.09695 -2.2447,-1.47317 0,0 -0.934187,-1.64057 -0.934187,-1.64057 C 3.339182,5.030911 2.921327,4.98809 2.908492,4.986472 2.007958,4.9291977 1.579322,4.702365 1.206982,4.090684 c 0,0 -0.913369,-1.51912 -0.917145,-1.52656 -0.448919,-0.829345 -0.293706,-1.42334 -0.0866126,-1.7754 0.436083,-0.722347 1.23447,-0.777464 1.55493,-0.788682 0,0 50.0768996,0 50.0768996,0 1.41794,0 2.56365,0.429719 3.41068,1.27934 0.608446,0.606288 1.02738,1.39713 1.24407,2.35008 0.0038,0.022435 0.06267,0.221547 0.4912,0.221547 l 9.898,0 c 0.428641,0 0.487533,-0.199004 0.4912,-0.221547 0.216693,-0.952955 0.635627,-1.7439 1.24407,-2.35008 0.847035,-0.849731 1.99263,-1.27934 3.41068,-1.27934 0,0 50.076896,0 50.076896,0 0.32046,0.0112176 1.11885,0.0663347 1.55493,0.788682 0.2071,0.352059 0.36231,0.946051 -0.0866,1.7754 -0.004,0.00755 -0.91714,1.52656 -0.91714,1.52656 -0.37245,0.611574 -0.80098,0.838514 -1.70151,0.895788 -0.0128,0.00162 -0.4308,0.044439 -0.72289,0.552789 0,0 -0.93419,1.64057 -0.93419,1.64057 -0.19641,0.376112 -0.66086,1.25906 -2.2447,1.47317 -0.0268,0.00378 -0.4885,0.055117 -0.7437,0.540385 -0.004,0.00539 -1.15315,2.02963 -1.15315,2.02963 -0.33599,0.650727 -0.80637,0.892013 -1.66085,1.15573 -0.002,0 -20.9439,6.14766 -20.9439,6.14766 -0.711669,0.21033 -1.00225,1.014 -1.00225,1.014 -0.500261,1.29218 -1.14991,2.35601 -4.41929,3.34219 -0.0022,0.0015 -17.1341,4.67503 -17.1341,4.67503 -0.209682,0.06957 -2.17189,0.666691 -3.64981,-0.759883 0,0 -4.0078,-3.82476 -4.01794,-3.83231 -0.0016,-0.0038 -0.168048,-0.173333 -0.394341,-0.173333 l -8.63e-4,0 z"
       class="fil0"
       id="_170829896" /><path
       style="fill:#ffffff"
       inkscape:connector-curvature="0"
       d="M 68.28,3.83231 C 68.454951,3.056356 68.789968,2.42019 69.27103,1.93913 69.937181,1.2719 70.86446,0.93268 72.023,0.93268 c 0,0 11.2015,0 23.005,0 -0.790839,0.591835 -1.2061,1.34039 -1.23393,1.39022 -0.266417,0.499182 -0.599277,1.08347 -0.995236,1.73797 0,0 -24.6,0 -24.6,0 0.0508,-0.089849 0.08133,-0.22845 0.08133,-0.22845 l -1.07e-4,-1.079e-4 z m 54.4703,-1.71446 c -0.0128,0.020278 -0.89838,1.49345 -0.89838,1.49345 -0.16804,0.276664 -0.27181,0.401891 -0.96212,0.445791 -0.004,0 -27.2434,0.00367 -27.2434,0.00367 0.304492,-0.515793 0.566164,-0.984019 0.785554,-1.39173 0.0074,-0.014453 0.972262,-1.73419002 2.68564,-1.73419002 0,0 24.957496,-0.002157 24.957496,-0.002157 0.26168,0.0112176 0.60198,0.0406637 0.78178,0.33760602 0.0219,0.040124 0.0734,0.12307 0.0734,0.27235 0,0.132669 -0.0423,0.320995 -0.17981,0.575224 l -1e-4,0 z m -3.33205,2.96068 c 0,0 -0.9509,1.67002 -0.9509,1.67002 -0.12998,0.247218 -0.33017,0.628723 -0.96579,0.848113 -0.53133,0.132669 -1.58815,0.048106 -1.95412,0.00378 0,0 -23.173005,-1.5395 -23.173005,-1.5395 0.299639,-0.444065 0.577382,-0.871627 0.830424,-1.27729 0,0 26.413501,0 26.413501,0 -0.069,0.08823 -0.13698,0.184011 -0.20008,0.294785 l 0,1.079e-4 z m -3.93931,3.67926 c 0.006,-0.00701 -0.91121,1.60789 -1.10223,1.94344 -0.0471,0.06267 -0.30773,0.346235 -1.15681,0.233843 0,0 -22.205,-2.97881 -22.205,-2.97881 0.304492,-0.398116 0.592806,-0.792996 0.863106,-1.1745 0,0 23.588304,1.56518 23.588304,1.56518 0.0343,0.00378 0.13374,0.014993 0.27558,0.027828 -0.0969,0.110774 -0.1852,0.235893 -0.26275,0.383123 l -2.1e-4,-1.079e-4 z m -7.63723,4.31003 c -0.83582,0.221547 -2.47099,-0.02945 -3.03878,-0.147123 0,0 -10.4449,-2.14622 -15.2581,-3.13617 0.333939,-0.392292 0.654394,-0.781239 0.958348,-1.16652 0,0 22.299202,2.99326 22.299202,2.99326 0,0 -4.96086,1.45656 -4.96086,1.45656 l 1.1e-4,0 z m -7.56356,2.21957 c -1.07279,0.287342 -2.47315,-0.177108 -2.48653,-0.180883 0,0 -0.01661,-0.0054 -0.01661,-0.0054 0,0 -0.0022,-0.0016 -0.0038,-0.0016 0,0 -10.2127,-3.15052 -10.2127,-3.15052 0.506193,-0.514283 0.987254,-1.02522 1.44049,-1.53735 0,0 15.6582,3.21858 15.6582,3.21858 0.0343,0.0053 0.35476,0.07173 0.8053,0.134287 0,0 -5.18446,1.52289 -5.18446,1.52289 l 10e-5,0 z m -7.97753,2.34318 c -0.725044,0.196955 -1.79363,-0.221547 -2.14838,-0.400273 0,0 -2.73267,-1.27934 -5.53868,-2.59191 0.842828,-0.691391 1.62989,-1.39713 2.36346,-2.11041 0,0 10.5905,3.26831 10.5905,3.26831 0.02028,0.0074 0.213026,0.07011 0.507811,0.136445 0,0 -5.77468,1.69784 -5.77468,1.69784 z m -1.63475,1.59829 c -0.308268,0.790839 -0.630881,1.6053 -2.80332,2.42181 -0.896759,0.278714 -1.96329,-0.514283 -1.97235,-0.523343 -0.0038,-0.0037 -2.42235,-1.73473 -5.17648,-3.70547 1.11885,-0.690852 2.2104,-1.45063 3.26938,-2.27997 0,0 5.85223,2.73914 5.85223,2.73914 0.03204,0.01661 0.635627,0.320995 1.3666,0.45744 -0.349363,0.398116 -0.507811,0.809068 -0.536178,0.890395 l 1.08e-4,0 z m -8.18527,3.95592 c 0,0 -0.815431,0.221008 -0.815431,0.221008 -0.686537,0.164273 -1.52451,-0.515901 -1.79255,-0.798389 0,0 -1.31634,-1.3693 -3.00771,-3.13564 1.08196,-0.490122 2.13932,-1.03752 3.17145,-1.64219 0,0 5.42359,3.88042 5.42359,3.88042 0.0219,0.01823 0.331781,0.250454 0.787064,0.44784 -1.20503,0.328006 -3.76641,1.02684 -3.76641,1.02684 l 0,1.08e-4 z m -7.17062,1.95574 c -0.572528,0.09039 -1.23717,-0.849731 -1.42981,-1.20028 0,0 -1.63572,-2.76848 -1.63572,-2.76848 1.33608,-0.385281 2.64217,-0.846495 3.91256,-1.39022 0,0 3.19021,3.32925 3.19021,3.32925 0.02837,0.02783 0.381505,0.394341 0.893092,0.683841 0,0 -4.93023,1.34579 -4.93023,1.34579 l -1.08e-4,1.08e-4 z m -5.4306,1.48007 c -0.385281,0.08877 -0.71059,0.04972 -0.989951,-0.119295 -0.600356,-0.367052 -0.799899,-1.2115 -0.811225,-1.26122 0,0 -0.834199,-3.01041 -0.834199,-3.01041 1.45915,-0.202779 2.8841,-0.488504 4.27692,-0.857174 0,0 1.73042,2.92962 1.73042,2.92962 0.05943,0.104841 0.410412,0.717062 0.936991,1.14462 0,0 -4.30906,1.17396 -4.30906,1.17396 l 1.08e-4,-1.08e-4 z m -3.5193,-1.09263 c 0,0 -2.3202,-2.21418 -3.10727,-2.96273 1.10439,-0.03851 2.1939,-0.119834 3.26399,-0.245061 0,0 0.853506,3.07836 0.853506,3.07836 0.02416,0.106998 0.194258,0.781779 0.668309,1.3185 -0.653855,-0.186276 -0.851888,-0.379887 -1.67854,-1.18896 l 0,-1.08e-4 z M 62.29241,21.861 c 0,0 0,-9.37897 0,-9.37897 0,0 1.49711,0 1.49711,0 0,0 2.53097,9.13229 2.53097,9.13229 -1.31731,0.150898 -2.65986,0.233843 -4.02808,0.246679 z m -4.75474,-0.246679 c 0,0 2.53258,-9.13229 2.53258,-9.13229 0,0 1.49711,0 1.49711,0 0,0 0,9.37746 0,9.37746 -1.37092,-0.01122 -2.71293,-0.09578 -4.0297,-0.245061 l 0,-1.08e-4 z m -0.664641,4.5086 c -0.328006,0.318946 -0.696676,0.497672 -1.05359,0.593884 0.477286,-0.538336 0.643177,-1.21517 0.668309,-1.32001 0,0 0.853506,-3.07297 0.853506,-3.07297 1.0702,0.123609 2.1596,0.204397 3.26345,0.241286 -0.883923,0.840671 -3.73168,3.5578 -3.73168,3.5578 z m -1.09317,-0.888238 c 0,0.0091 -0.196415,0.890395 -0.812303,1.26662 -0.279361,0.169127 -0.603592,0.208064 -0.988872,0.119295 0,0 -4.30906,-1.17396 -4.30906,-1.17396 0.526471,-0.429719 0.881335,-1.04183 0.942276,-1.15422 -0.0022,0.0022 0.729897,-1.2349 1.72244,-2.91776 1.39335,0.36867 2.82046,0.654394 4.27961,0.855016 0,0 -0.834199,3.00502 -0.834199,3.00502 l 1.08e-4,0 z m -7.23178,-0.09416 c 0,0 -4.93023,-1.34579 -4.93023,-1.34579 0.511478,-0.291118 0.866234,-0.65817 0.893092,-0.685459 0,0 1.40942,-1.47155 3.19021,-3.32774 1.2719,0.542003 2.57433,1.00645 3.91094,1.39173 0,0 -1.62881,2.75995 -1.62881,2.75995 -0.198465,0.357452 -0.863106,1.29757 -1.43509,1.20718 l -1.08e-4,1.08e-4 z m -6.35627,-1.73473 c 0,0 -4.58087,-1.24785 -4.58087,-1.24785 0.4569,-0.199004 0.768943,-0.433387 0.794614,-0.453772 -0.0038,0.0038 2.55933,-1.83051 5.41615,-3.87449 1.03223,0.602513 2.08949,1.15207 3.17306,1.64219 0,0 -3.00933,3.13564 -3.00933,3.13564 -0.268035,0.282489 -1.10601,0.962554 -1.79363,0.798389 l 0,-1.08e-4 z m -6.20213,-1.75512 c -2.16337,-0.816618 -2.48761,-1.62935 -2.79533,-2.41803 -0.02513,-0.07011 -0.183472,-0.490661 -0.538228,-0.89417 0.732594,-0.138602 1.33824,-0.442447 1.37782,-0.462833 -0.0059,0.0016 2.92638,-1.36768 5.84263,-2.73374 1.05629,0.829345 2.14784,1.59074 3.26723,2.27997 0,0 -5.16893,3.69802 -5.16893,3.69802 -0.01661,0.01661 -1.08843,0.813274 -1.98519,0.530785 z m -4.43062,-4.0201 c -0.218311,-0.06482 -2.64648,-0.778111 -5.7763,-1.69784 0.29856,-0.06633 0.494975,-0.132669 0.516871,-0.14022 -0.0091,0.0038 8.5822,-2.64713 10.5829,-3.26453 0.733565,0.711669 1.52074,1.41902 2.36346,2.1088 0,0 -5.52962,2.58824 -5.52962,2.58824 -0.365973,0.184011 -1.4324,0.602513 -2.15744,0.405558 l 1.08e-4,0 z m -7.97375,-2.34156 c -1.7027,-0.499182 -3.49783,-1.0263 -5.19093,-1.52451 0.451615,-0.06256 0.774228,-0.129002 0.807989,-0.136445 -0.0016,0.0022 11.0544,-2.27091 15.6582,-3.21642 0.45539,0.5104 0.932677,1.02306 1.43887,1.53735 0,0 -10.224,3.1543 -10.224,3.1543 -0.02308,0.007 -1.41751,0.469844 -2.4903,0.185737 l 1.08e-4,0 z m -7.56194,-2.21903 c -2.30036,-0.678448 -4.16992,-1.22584 -4.96777,-1.45861 0,0 22.3025,-2.9932599 22.3025,-2.9932599 0.304492,0.383123 0.62333,0.772071 0.95673,1.1649 0,0 -15.2597,3.1377899 -15.2597,3.1377899 -0.566164,0.117677 -2.1939,0.36867 -3.03187,0.14928 l 1.08e-4,-1.08e-4 z m -5.38347,-2.13501 c -0.843367,0.112391 -1.10817,-0.165891 -1.15681,-0.232225 0,0 -1.10978,-1.9541199 -1.10978,-1.9541199 -0.075395,-0.145505 -0.164812,-0.266957 -0.257357,-0.374063 0.142269,-0.012835 23.8681,-1.593 23.8681,-1.593 0.2703,0.381505 0.556456,0.774228 0.860949,1.1745 0,0 -22.205,2.9788099 -22.205,2.9788099 l -1.08e-4,1.08e-4 z M 6.358669,7.5965601 c -0.636274,-0.21939 -0.837974,-0.600895 -0.967947,-0.848113 -0.389056,-0.661298 -0.900642,-1.64963 -1.15207,-1.9648 0,0 26.4178,0 26.4178,0 0.253582,0.405558 0.529168,0.833121 0.830424,1.27729 0,0 -23.1763,1.5395 -23.1763,1.5395 -0.363816,0.044439 -1.42118,0.128894 -1.95197,-0.00378 l 0,-1.079e-4 z m -3.38285,-3.53591 c -0.636274,-0.047567 -0.77164,-0.12307 -0.971722,-0.451615 0.00216,0.00216 -0.830424,-1.38213 -0.896759,-1.49129 -0.138062,-0.254121 -0.18358,-0.442555 -0.177648,-0.575224 0.015532,-0.339224 0.246139,-0.600895 0.853506,-0.610063 0,0 24.9591,0.002157 24.9591,0.002157 1.68932,0 2.68564,1.73419 2.68564,1.73419 0.21939,0.407716 0.481061,0.875942 0.787172,1.39173 0,0 -27.2391,0 -27.2391,0 l -2.157e-4,1.079e-4 z m 48.8587,-3.12809 c 1.16059,0 2.08582,0.339224 2.75251,1.00645 0.481061,0.481061 0.815,1.11723 0.992647,1.89318 0,0 0.03581,0.132669 0.08133,0.22845 0,0 -24.5996,0 -24.5996,0 -0.376112,-0.617506 -0.995775,-1.73797 -0.995775,-1.73797 -0.02729,-0.049724 -0.443094,-0.798389 -1.23393,-1.39022 11.8035,0 23.0029,0 23.0029,0 l -1.07e-4,1.0786e-4 z m 35.6226,4.80403 c 0,0 0,-0.952955 0,-0.952955 0,0 4.89075,0 4.89075,0 -0.248836,0.390566 -0.520646,0.799899 -0.811764,1.22207 0,0 -4.07899,-0.269114 -4.07899,-0.269114 z m 0,1.74379 c 0,0 0,-0.991461 0,-0.991461 0,0 3.57118,0.235893 3.57118,0.235893 -0.263829,0.366513 -0.545778,0.740576 -0.840024,1.12262 0,0 -2.73116,-0.367052 -2.73116,-0.367052 z m 0,1.87668 c 0,0 0,-1.14667 0,-1.14667 0,0 2.20878,0.29705 2.20878,0.29705 -0.296942,0.367052 -0.608338,0.73734 -0.933108,1.11129 -0.5694,-0.117677 -1.00807,-0.206554 -1.27568,-0.261671 z m 0,0.7393889 c 0,0 0.720837,0.147123 0.720837,0.147123 -0.232225,0.256278 -0.473619,0.516332 -0.720837,0.772718 0,0 0,-0.919841 0,-0.919841 z m -7.45117,2.38546 c 0,0 5.96948,0 5.96948,0 -0.608446,0.60467 -2.04451,1.77486 -2.09165,1.8139 -1.45171,-0.680605 -2.86749,-1.34039 -3.87772,-1.8139 l -1.08e-4,0 z m -6.19577,0 c 0,0 4.48617,0 4.48617,0 0,0 4.94846,2.31535 4.94846,2.31535 -1.02846,0.787172 -2.08582,1.50952 -3.17252,2.16769 -2.38805,-1.71068 -4.90413,-3.51175 -6.2621,-4.48293 l 0,-1.08e-4 z m -3.64981,0 c 0,0 2.40682,0 2.40682,0 0,0 6.82126,4.88482 6.82126,4.88482 -0.994158,0.569831 -2.0156,1.08789 -3.0569,1.54856 -2.24632,-2.34102 -4.9517,-5.16354 -6.17118,-6.43339 z m -3.04892,0 c 0,0 2.04397,0 2.04397,0 0,0 6.46326,6.73939 6.46326,6.73939 -1.22056,0.50889 -2.47369,0.941737 -3.75573,1.30512 0,0 -4.75161,-8.04451 -4.75161,-8.04451 l 1.08e-4,0 z m -0.84175,0 c 0,0 4.86875,8.23985 4.86875,8.23985 -1.33295,0.346774 -2.69793,0.612113 -4.09075,0.802057 0,0 -2.50691,-9.0419 -2.50691,-9.0419 0,0 1.72891,0 1.72891,0 z m -8.68122,0 c 0,0 1.72891,0 1.72891,0 0,0 -2.50691,9.0419 -2.50691,9.0419 -1.39497,-0.189944 -2.75791,-0.45539 -4.09075,-0.800007 1.82415,-3.0858 4.25826,-7.20815 4.86875,-8.2419 z m -2.88615,0 c 0,0 2.04451,0 2.04451,0 0,0 -4.75161,8.04451 -4.75161,8.04451 -1.28204,-0.36112 -2.53366,-0.796232 -3.75681,-1.30717 2.59201,-2.70052 5.71093,-5.95233 6.4638,-6.73723 l 1.08e-4,-1.08e-4 z m -3.41122,0 c 0,0 2.40682,0 2.40682,0 0,0 -6.16902,6.43339 -6.16902,6.43339 -1.04345,-0.460676 -2.06274,-0.978626 -3.06013,-1.54856 2.96058,-2.12001 6.04649,-4.32998 6.82233,-4.88482 z m -11.3166,1.8139 c -0.05458,-0.04444 -1.48439,-1.24623 -2.09165,-1.8139 0,0 5.96883,0 5.96883,0 0,0 -3.87718,1.8139 -3.87718,1.8139 z m 5.58732,-1.8139 c 0,0 4.48509,0 4.48509,0 0,0 -6.26156,4.48131 -6.26156,4.48131 -1.08735,-0.656552 -2.14461,-1.3789 -3.17145,-2.16607 2.35062,-1.10062 4.52737,-2.1184 4.94792,-2.31535 l 0,1.08e-4 z m -9.16648,-2.38546 c 0,0 0,0.912291 0,0.912291 -0.245061,-0.254121 -0.483219,-0.510508 -0.713287,-0.765168 0.286264,-0.0604 0.52604,-0.108616 0.713287,-0.147123 z m 0,-1.8861699 c 0,0 0,1.14667 0,1.14667 0,0 -1.27028,0.261671 -1.27028,0.261671 -0.324231,-0.375681 -0.634009,-0.744243 -0.930519,-1.11129 0,0 2.2008,-0.29705 2.2008,-0.29705 z m 0,-1.72136 c 0,0 0,0.991461 0,0.991461 0,0 -2.72361,0.367052 -2.72361,0.367052 -0.294785,-0.382045 -0.574146,-0.756108 -0.837867,-1.12262 0,0 3.56158,-0.235893 3.56158,-0.235893 l -1.08e-4,0 z m 0,-0.752333 c 0,0 -4.06939,0.269114 -4.06939,0.269114 -0.293275,-0.422169 -0.563467,-0.831503 -0.812303,-1.22207 0,0 4.88159,0 4.88159,0 0,0 0,0.952955 0,0.952955 l 1.08e-4,0 z"
       class="fil1"
       id="_170829840" /><path
       inkscape:connector-curvature="0"
       style="fill:url(#id0)"
       d="m 37.1315,11.7574 c -0.0038,-0.0038 -0.007,-0.0076 -0.01068,-0.01122 0,0 0,-6.9587796 0,-6.9587796 0,0 49.6129,0 49.6129,0 0,0 0,6.9625496 0,6.9625496 -0.0016,0.0038 -0.0038,0.0038 -0.0054,0.0054 0,0 -49.5967,0.0022 -49.5967,0.0022 l -1.08e-4,-1.08e-4 z"
       class="fil2"
       id="_170831360" /><path
       style="fill:#ffffff"
       inkscape:connector-curvature="0"
       d="m 40.4174,5.89872 c 0,0 -0.207094,0 -0.207094,0 0,0 -2.12001,4.74298 -2.12001,4.74298 0,0 0.574146,0 0.574146,0 0,0 0.0091,-0.02729 0.0091,-0.02729 0.171715,-0.577382 0.392831,-1.1300599 0.607367,-1.6609599 0,0 0.03052,-0.075934 0.04444,-0.112391 0.05242,0 1.58707,0 1.63949,0 0.221547,0.504575 0.448379,1.08357 0.691391,1.7748599 0,0 0.0096,0.02567 0.0096,0.02567 0,0 0.792457,0 0.792457,0 0,0 -2.04084,-4.7429799 -2.04084,-4.7429799 l 0,1.079e-4 z m -0.931598,2.5808 c 0.04336,-0.104841 0.599817,-1.40834 0.666151,-1.56302 0.06526,0.154673 0.632499,1.45807 0.677369,1.56302 -0.111313,0 -1.2349,0 -1.34363,0 l 1.08e-4,0 z"
       class="fil1"
       id="_171137640" /><path
       style="fill:#ffffff"
       inkscape:connector-curvature="0"
       d="m 42.6866,10.3045 c 0,0 0.01769,0.01823 0.01769,0.01823 0.250454,0.272889 0.814892,0.400273 1.11885,0.400273 0.994805,0 1.69137,-0.641559 1.69137,-1.5629104 0,-0.76355 -0.577921,-0.988333 -1.13653,-1.20934 -0.496054,-0.197494 -0.967947,-0.379887 -0.967947,-0.943894 0,-0.428101 0.337606,-0.73734 0.799899,-0.73734 0.369749,0 0.649001,0.195337 0.790839,0.552789 0,0 0.0096,0.025671 0.0096,0.025671 0,0 0.126306,0 0.126306,0 0,0 0.197925,-0.598846 0.197925,-0.598846 0,0 -0.0219,-0.020278 -0.0219,-0.020278 -0.270193,-0.243443 -0.685998,-0.330163 -0.981861,-0.330163 -0.927284,0 -1.52548,0.51795 -1.52548,1.32173 0,0.818667 0.610495,1.05629 1.14775,1.27028 0.485915,0.187787 0.941737,0.36867 0.941737,0.931059 0,0.521725 -0.389056,0.9326774 -0.884463,0.9326774 -0.453772,0 -0.755029,-0.195337 -1.0482,-0.6747804 0,0 -0.01122,-0.018229 -0.01122,-0.018229 0,0 -0.126306,0 -0.126306,0 0,0 -0.138062,0.6431774 -0.138062,0.6431774 l 0,-1.08e-4 z"
       class="fil1"
       id="_171199256" /><path
       style="fill:#ffffff"
       inkscape:connector-curvature="0"
       d="m 49.2576,5.99655 c 0,0 -3.48769,0 -3.48769,0 0,0 0,0.488504 0,0.488504 0,0 0.04498,-0.00378 0.04498,-0.00378 0.400273,-0.042282 0.787172,-0.07917 1.41794,-0.081327 0,0.082945 0,4.25664 0,4.25664 0,0 0.669926,0 0.669926,0 0,0 0,-4.17154 0,-4.2544799 0.473511,0 0.926205,0.027289 1.34945,0.07917 0,0 0.04714,0.00539 0.04714,0.00539 0,0 0,-0.490122 0,-0.490122 0,0 -0.04174,0 -0.04174,0 z"
       class="fil1"
       id="_171234112" /><path
       style="fill:#ffffff"
       inkscape:connector-curvature="0"
       d="m 51.6607,5.89872 c -1.47953,0 -2.51435,0.997393 -2.51435,2.42235 0,1.43779 1.00645,2.40196 2.50152,2.40196 1.54533,0 2.58608,-1.00645 2.58608,-2.50314 0,-1.60422 -1.29326,-2.32118 -2.57325,-2.32118 z m 1.23868,3.99658 c -0.329085,0.348284 -0.742194,0.5255 -1.23339,0.5255 -1.08304,0 -1.78349,-0.792457 -1.78349,-2.0183 0,-1.35862 0.707894,-2.20134 1.84443,-2.20134 0.536178,0 1.04237,0.236001 1.35485,0.630341 0.343538,0.43878 0.413648,0.896327 0.413648,1.44372 0.002,0.029446 0.0037,0.06256 0.0037,0.094163 0,0.445683 -0.181315,1.07818 -0.599817,1.52602 l 1.08e-4,-1.079e-4 z"
       class="fil1"
       id="_171242176" /><path
       style="fill:#ffffff"
       inkscape:connector-curvature="0"
       d="m 58.8794,5.99655 c 0,0 -0.415697,0 -0.415697,0 0,0 0,3.35664 0,3.43797 -0.0038,0 -0.0054,0 -0.0076,0 -0.02405,-0.027828 -3.1736,-3.43797 -3.1736,-3.43797 0,0 -0.320456,0 -0.320456,0 0,0 0,4.64515 0,4.64515 0,0 0.457008,0 0.457008,0 0,0 0,-3.51186 0,-3.59469 0.0038,0 0.0059,0 0.0096,0 0.02459,0.027828 2.87073,3.17835 2.87073,3.17835 0,0 0.356913,0.416345 0.356913,0.416345 0,0 0.02136,0 0.02136,0 0,0 0.243011,0 0.243011,0 0,0 0,-4.64515 0,-4.64515 0,0 -0.0412,0 -0.0412,0 l -1.08e-4,0 z"
       class="fil1"
       id="_171242152" /><path
       style="fill:#ffffff"
       inkscape:connector-curvature="0"
       d="m 66.3853,5.99655 c 0,0 -0.164273,0 -0.164273,0 0,0 -1.12532,2.0403 -1.12532,2.0403 0,0 -0.711669,1.29811 -0.776386,1.41428 -0.694087,-1.15789 -1.31904,-2.37629 -1.85133,-3.43258 0,0 -0.01122,-0.022004 -0.01122,-0.022004 0,0 -0.236001,0 -0.236001,0 0,0 -0.0037,0.038506 -0.0037,0.038506 -0.06633,0.685998 -0.466069,3.4823 -0.64048,4.56048 0,0 -0.0091,0.04606 -0.0091,0.04606 0,0 0.562928,0 0.562928,0 0,0 0,-0.04013 0,-0.04013 0,-0.6543936 0.116059,-1.6298896 0.239668,-2.6641696 0,0 0.05242,-0.457008 0.07388,-0.639402 0.07917,0.150898 0.953062,1.81024 1.28689,2.49397 0,0 0.37773,0.7780036 0.37773,0.7780036 0,0 0.126306,0 0.126306,0 0,0 0.01068,-0.02567 0.01068,-0.02567 0.388948,-0.8925516 0.936991,-1.9118396 1.68771,-3.2538496 0.106459,0.799899 0.247218,2.3983 0.32477,3.3143596 0,0 0.0043,0.03689 0.0043,0.03689 0,0 0.711669,0 0.711669,0 0,0 -0.0064,-0.04606 -0.0064,-0.04606 -0.160498,-1.1263998 -0.335556,-2.6175798 -0.541032,-4.5604798 0,0 -0.0038,-0.038507 -0.0038,-0.038507 0,0 -0.03743,0 -0.03743,0 l -2.16e-4,0 z"
       class="fil1"
       id="_171249360" /><path
       style="fill:#ffffff"
       inkscape:connector-curvature="0"
       d="m 69.571,5.89872 c 0,0 -0.208172,0 -0.208172,0 0,0 -2.12109,4.74298 -2.12109,4.74298 0,0 0.577382,0 0.577382,0 0,0 0.0074,-0.02729 0.0074,-0.02729 0.172254,-0.582667 0.394341,-1.1376099 0.610063,-1.6721699 0,0 0.02675,-0.066335 0.03959,-0.101174 0.05242,0 1.58707,0 1.64057,0 0.225754,0.515901 0.458087,1.10925 0.690312,1.7748599 0,0 0.0096,0.02567 0.0096,0.02567 0,0 0.793536,0 0.793536,0 0,0 -2.03923,-4.7429799 -2.03923,-4.7429799 l 0,1.079e-4 z m -0.932677,2.5808 c 0.04336,-0.104841 0.600356,-1.40834 0.666691,-1.56302 0.06633,0.154673 0.631959,1.45807 0.677477,1.56302 -0.111852,0 -1.23447,0 -1.34417,0 z"
       class="fil1"
       id="_171205240" /><path
       style="fill:#ffffff"
       inkscape:connector-curvature="0"
       d="m 73.6501,8.34685 c 0.838406,-0.169558 1.33985,-0.646952 1.33985,-1.29229 0,-0.709512 -0.497672,-1.0579 -1.5244,-1.0579 0,0 -1.45548,0 -1.45548,0 0,0 0,4.64515 0,4.64515 0,0 0.668309,0 0.668309,0 0,0 0,-2.14568 0,-2.22647 0.05242,0 0.165891,0 0.194797,0 0.0219,0.027289 0.520646,0.613731 0.520646,0.613731 -0.0022,-0.00216 0.787172,1.01929 0.787172,1.01929 0,0 0.432308,0.593453 0.432308,0.593453 0,0 0.02297,0 0.02297,0 0,0 0.852428,0 0.852428,0 0,0 -1.75933,-2.19713 -1.8385,-2.29496 l -1.07e-4,0 z M 72.67827,8.081403 c 0,-0.073885 0,-1.68123 0,-1.75512 0.275586,-0.012836 0.702608,-0.030956 0.934834,0.00593 0.463372,0.075395 0.699373,0.346235 0.699373,0.801517 0,0.466608 -0.30665,0.80745 -0.822982,0.910781 C 73.198917,8.103403 72.847936,8.092617 72.67827,8.0814 Z"
       class="fil1"
       id="_171209080" /><path
       style="fill:#ffffff"
       inkscape:connector-curvature="0"
       d="m 78.8565,5.99655 c 0,0 -3.48877,0 -3.48877,0 0,0 0,0.488504 0,0.488504 0,0 0.04552,-0.00378 0.04552,-0.00378 0.400813,-0.042282 0.787172,-0.07917 1.4159,-0.081327 0,0.082945 0,4.25664 0,4.25664 0,0 0.673702,0 0.673702,0 0,0 0,-4.17154 0,-4.2544799 0.472002,0 0.925234,0.027289 1.34848,0.07917 0,0 0.04714,0.00539 0.04714,0.00539 0,0 0,-0.490122 0,-0.490122 0,0 -0.04174,0 -0.04174,0 l -2.16e-4,0 z"
       class="fil1"
       id="_171209056" /><polygon
       style="fill:#ffffff"
       points="80.0817,10.6419 80.0817,5.99655 79.4494,5.99655 79.4494,10.6419 "
       class="fil1"
       id="_171221600" /><path
       style="fill:#ffffff"
       inkscape:connector-curvature="0"
       d="m 84.5685,5.99655 c 0,0 0,3.35664 0,3.43797 -0.0022,0 -0.0038,0 -0.0054,0 -0.02513,-0.027828 -3.1736,-3.43797 -3.1736,-3.43797 0,0 -0.321103,0 -0.321103,0 0,0 0,4.64515 0,4.64515 0,0 0.457548,0 0.457548,0 0,0 0,-3.51186 0,-3.59469 0.0038,0 0.0054,0 0.0075,0 0.02459,0.027828 2.8745,3.17835 2.8745,3.17835 0,0 0.356913,0.416345 0.356913,0.416345 0,0 0.260593,0 0.260593,0 0,0 0,-4.64515 0,-4.64515 0,0 -0.457008,0 -0.457008,0 z"
       class="fil1"
       id="_171224520" /></g></svg>